<?xml version="1.0" encoding="UTF-8"?>
<svg id="Layer_1" data-name="Layer 1" xmlns="http://www.w3.org/2000/svg" viewBox="0 0 2880 2880">
  <defs>
    <style>
      .cls-1 {
        fill: #ff1c00;
      }

      .cls-2 {
        fill: #fff;
        fill-rule: evenodd;
      }
    </style>
  </defs>
  <rect width="2880" height="2880"/>
  <path class="cls-2" d="m2088.76,268.35c-25.38,33.71-63.65,84.91-75.08,100.46-14.52,19.76-57.14,77.19-90.77,122.34-24.8,33.29-49.58,66.63-74.31,99.97-40.48,54.57-61.12,82.36-85.22,114.81-14.07,18.94-36.47,49.1-49.8,67.05-13.33,17.95-42.19,56.67-64.13,86.03-36.02,48.23-48.02,64.41-88.86,119.85-6.73,9.14-23.96,32.36-38.3,51.62-17.37,23.33-34.72,46.67-52.04,70.01-23.49,31.63-45.35,60.37-48.29,63.48-.73.78-2.13.03-4.05-2.19-4.18-4.82-54.9-76.28-106.69-150.29-11.18-15.99-42.15-60.05-68.79-97.9-26.65-37.86-60.83-86.45-75.95-107.98-17.16-24.42-34.34-48.83-51.57-73.21l-24.06-34.04-6.1-.7c-3.36-.39-50.69-1.2-105.19-1.8-67.93-.78-135.86-1.62-203.81-2.53-57.59-.79-105-1.15-105.34-.79-.34.34,6.76,11.25,15.78,24.23,24.66,35.46,78.35,112.39,109.21,156.5,15.07,21.55,43.69,62.66,63.62,91.37,36.3,52.34,43.54,62.69,93.42,133.78,18.25,26,36.47,52.01,54.67,78.03,15.3,21.86,39.81,56.84,54.48,77.73s41.82,59.6,60.32,86.03,37.35,53.26,41.89,59.65c7.82,10.98,8.15,11.72,6.46,14.25-.99,1.45-129.72,176.2-286.08,388.31-156.38,212.11-284.31,386.06-284.33,386.54,0,.49,35.9.88,79.78.87l79.8-.03,11.82-16.3c13.77-19,41.5-58.28,56.74-80.38,10.34-15,16.53-23.75,61.64-87.22,11.82-16.63,36.36-51.35,54.54-77.13,18.17-25.77,43.63-61.82,56.58-80.1,12.95-18.28,29.85-42.3,37.58-53.4,7.72-11.1,26.38-37.53,41.47-58.73,15.1-21.22,34.6-48.71,43.33-61.12,8.73-12.41,26.3-37.23,39.03-55.18,12.74-17.95,26.68-37.71,31.03-43.91,4.35-6.2,26.41-37.29,49.04-69.07,22.64-31.79,42.22-59.63,43.54-61.85l2.4-4.05-17.47-23.58c-21.23-28.63-42.48-57.26-63.75-85.88-25.46-34.27-55.69-75.12-67.17-90.78-55.12-75.17-81.87-111.47-101.46-137.8-11.75-15.78-30.18-40.81-40.93-55.65-10.76-14.83-31.54-43.05-46.18-62.72s-42.88-57.92-62.78-85c-19.9-27.07-48.56-65.8-63.69-86.03-32.47-43.41-46.76-62.99-47.62-65.19-.91-2.37,13.35-2.89,115.25-4.23,48.95-.63,108.22-1.5,131.71-1.92l42.72-.76,7.06,9.93c6.38,9,43.63,59.23,111.19,149.96,104.66,140.55,143.1,192.38,182.63,246.23,33.41,45.52,51.39,69.25,52.74,69.66.66.19,7.91-9.12,16.11-20.71,18.41-25.98,69.93-99.16,100.03-142.1,12.35-17.62,30.03-42.72,39.29-55.77,11.6-16.38,23.15-32.8,34.64-49.25,9.8-14.02,27.12-38.6,38.51-54.58,22.11-31.06,29.07-40.9,75.81-107.4,16.53-23.49,41.62-59.02,55.75-78.91,14.13-19.9,28.03-39.66,30.88-43.9,2.85-4.24,12.18-17.59,20.74-29.67,32.83-46.3,65.61-92.79,102.51-145.36,21.07-30.03,50.63-71.95,65.68-93.15,27.21-38.33,95.71-135.7,97.45-138.55.49-.81.63-1.48.28-1.48s-4.54,5.2-9.32,11.57m19.73,431.94c-4.67,6.64-9.38,13.26-14.1,19.88-28.15,39.38-73.01,102.92-85.75,121.5-4.32,6.28-25.26,35.97-46.55,66-21.29,30.03-48.26,68.2-59.92,84.85-11.66,16.63-24.47,34.79-28.47,40.35-9.3,12.9-32.5,45.85-63.47,90.18-22.16,31.7-88.37,125.51-124.16,175.9-7.75,10.92-27.7,39.17-44.35,62.76s-36.26,51.21-43.59,61.34c-8.12,11.24-12.95,18.94-12.33,19.72,1.05,1.38,64.62,87.68,115.43,156.72,45.5,61.83,168.24,228.44,245.64,333.44,31.06,42.15,94.54,128.43,115.53,157.05,30.79,41.97,32.6,44.6,31.1,45.43-.79.45-32.95,1.41-71.45,2.14-38.51.73-96.17,1.84-128.16,2.49-31.99.64-64.67,1.15-72.62,1.15h-14.49l-32.39-43.42c-61.35-82.27-88.44-118.63-113.05-151.78-13.57-18.28-33.41-44.98-44.09-59.33-10.68-14.35-36.29-48.8-56.92-76.53-19.13-25.71-38.25-51.42-57.37-77.13-10.92-14.68-26.16-35.51-33.85-46.28s-14.44-20.08-15-20.68c-.6-.66-1.98-.21-3.43,1.09-1.33,1.21-16.6,22.53-33.92,47.39-42.63,61.15-74.63,106.66-117.77,167.4-19.93,28.06-47.71,67.32-61.74,87.22-14.04,19.91-28.26,39.93-31.63,44.5-6.05,8.23-18.92,26.44-70.4,99.68-14.68,20.89-34.45,48.92-43.94,62.3-9.48,13.38-30.1,42.75-45.83,65.27-40.69,58.28-60.28,86.2-79.51,113.33-43.18,60.88-69.81,98.68-79.5,112.88-3.91,5.74-16.95,24.33-28.95,41.32-57.73,81.67-83.1,118.3-79.33,114.56,2.59-2.59,140.79-187.93,150.43-201.73,5.14-7.37,83.54-112.79,172.11-231.4,32.89-44.05,78.24-104.98,100.77-135.43,27.25-36.8,54.55-73.58,81.88-110.36,89.6-120.57,129.78-174.89,148.44-200.65,10.74-14.83,19.79-26.97,20.12-26.98s10.2,13.69,21.95,30.46c11.75,16.77,31.72,45.2,44.36,63.18,41.04,58.31,69.31,98.65,86.11,122.89,9.05,13.05,18.95,27.21,22.01,31.43,3.06,4.24,17.72,25.07,32.62,46.28,14.88,21.22,29.76,42.3,33.07,46.87,3.3,4.57,13.51,18.98,22.71,32.05,37.14,52.77,63.47,89.18,66.66,92.17l3.37,3.18,70.01,1.29c119.68,2.2,202.79,3.51,269.36,4.21,35.24.36,66.88.93,70.31,1.24s6.23.09,6.23-.51c0-2.07-79.33-117.71-151.12-220.23-9.14-13.05-24.44-34.95-33.98-48.65-11.46-16.42-22.94-32.84-34.43-49.25-13.27-18.97-26.52-37.95-39.75-56.96-14.59-20.99-29.2-41.94-43.85-62.88-9.41-13.44-18.82-26.89-28.2-40.35-11.91-17.13-131.34-187.8-160.3-229.12l-5.47-7.81,288.29-390.9c158.56-214.99,288.3-391.31,288.3-391.79s-37.34-.88-82.99-.88h-83.01l-5.62,8-.08-.06Z"/>
  <circle class="cls-1" cx="1439.04" cy="1442.53" r="108.15"/>
</svg>