<?xml version="1.0" encoding="UTF-8"?>
<svg id="Layer_1" data-name="Layer 1" xmlns="http://www.w3.org/2000/svg" viewBox="0 0 1496.31 2107.3">
  <defs>
    <style>
      .cls-1 {
        fill: #ff1c00;
      }

      .cls-2 {
        fill: #fff;
        fill-rule: evenodd;
      }
    </style>
  </defs>
  <path class="cls-2" d="m1325.87,10.31c-22.6,30.02-56.68,75.61-66.86,89.46-12.93,17.6-50.89,68.74-80.83,108.94-22.08,29.65-44.15,59.33-66.18,89.02-36.05,48.59-54.42,73.34-75.89,102.24-12.53,16.86-32.47,43.72-44.35,59.71-11.87,15.98-37.57,50.46-57.1,76.61-32.07,42.95-42.76,57.36-79.13,106.72-5.99,8.14-21.33,28.82-34.1,45.96-15.46,20.77-30.91,41.56-46.34,62.35-20.92,28.17-40.39,53.76-43,56.53-.65.69-1.89.03-3.6-1.95-3.72-4.3-48.89-67.92-95.01-133.83-9.95-14.24-37.53-53.47-61.25-87.18-23.74-33.72-54.17-76.98-67.63-96.16-15.28-21.75-30.58-43.48-45.92-65.19l-21.43-30.31-5.43-.63c-2.99-.35-45.14-1.07-93.67-1.6-60.49-.69-120.99-1.44-181.49-2.25-51.29-.71-93.5-1.03-93.81-.71-.31.31,6.02,10.02,14.05,21.57,21.96,31.58,69.77,100.08,97.25,139.36,13.42,19.19,38.91,55.8,56.65,81.36,32.33,46.6,38.77,55.82,83.19,119.13,16.25,23.15,32.47,46.31,48.69,69.49,13.62,19.47,35.45,50.62,48.51,69.22,13.06,18.6,37.24,53.07,53.72,76.61,16.48,23.54,33.26,47.43,37.3,53.11,6.96,9.78,7.26,10.43,5.75,12.69-.88,1.29-115.52,156.9-254.75,345.79C113.94,1565.25.01,1720.15,0,1720.58c0,.44,31.97.79,71.05.77l71.06-.03,10.53-14.52c12.26-16.92,36.96-51.9,50.53-71.58,9.21-13.36,14.72-21.15,54.89-77.66,10.53-14.81,32.38-45.72,48.57-68.68,16.18-22.95,38.85-55.05,50.38-71.33,11.53-16.28,26.58-37.66,33.46-47.55,6.87-9.89,23.5-33.42,36.93-52.3,13.45-18.89,30.81-43.38,38.59-54.42,7.78-11.05,23.42-33.15,34.76-49.14,11.34-15.98,23.76-33.58,27.63-39.11,3.87-5.52,23.52-33.21,43.67-61.51,20.16-28.31,37.6-53.1,38.77-55.08l2.13-3.6-15.56-21c-18.91-25.5-37.82-50.99-56.77-76.48-22.67-30.51-49.59-66.9-59.81-80.84-49.09-66.94-72.9-99.26-90.35-122.71-10.46-14.05-26.87-36.34-36.45-49.55s-28.09-38.33-41.12-55.85c-13.04-17.52-38.18-51.58-55.9-75.69s-43.24-58.6-56.72-76.61c-28.91-38.65-41.64-56.09-42.4-58.05-.81-2.11,11.89-2.58,102.63-3.76,43.59-.56,96.37-1.33,117.29-1.71l38.04-.68,6.28,8.85c5.68,8.02,38.85,52.74,99.01,133.54,93.19,125.16,127.43,171.31,162.63,219.26,29.75,40.53,45.76,61.67,46.96,62.03.59.17,7.04-8.13,14.34-18.44,16.4-23.14,62.27-88.3,89.07-126.54,10.99-15.69,26.74-38.04,34.98-49.66,10.33-14.58,20.61-29.21,30.85-43.86,8.73-12.49,24.15-34.37,34.29-48.61,19.69-27.66,25.88-36.42,67.51-95.64,14.72-20.92,37.06-52.55,49.65-70.27,12.58-17.72,24.96-35.32,27.5-39.09s10.85-15.66,18.47-26.42c29.23-41.23,58.42-82.63,91.29-129.44,18.76-26.74,45.08-64.07,58.49-82.95,24.23-34.13,85.23-120.84,86.78-123.37.44-.72.56-1.32.25-1.32s-4.04,4.63-8.3,10.3m17.57,384.64c-4.16,5.91-8.35,11.81-12.55,17.7-25.07,35.06-65.02,91.65-76.36,108.19-3.84,5.59-22.49,32.03-41.45,58.77-18.96,26.74-42.97,60.73-53.35,75.56-10.38,14.81-21.79,30.98-25.35,35.93-8.29,11.49-28.94,40.83-56.52,80.31-19.73,28.23-78.69,111.77-110.57,156.64-6.9,9.73-24.67,34.88-39.49,55.89-14.82,21.01-32.29,45.6-38.81,54.62-7.23,10.01-11.53,16.86-10.98,17.56.93,1.23,57.54,78.08,102.79,139.56,40.52,55.06,149.82,203.43,218.74,296.93,27.66,37.53,84.19,114.37,102.88,139.85,27.42,37.37,29.03,39.72,27.7,40.45-.71.4-29.34,1.25-63.63,1.91-34.29.65-85.64,1.64-114.13,2.21-28.49.57-57.58,1.03-64.67,1.03h-12.9l-28.85-38.67c-54.64-73.26-78.76-105.64-100.67-135.16-12.09-16.28-29.75-40.05-39.27-52.83-9.51-12.78-32.31-43.45-50.69-68.15-17.04-22.9-34.06-45.79-51.09-68.68-9.73-13.08-23.3-31.62-30.14-41.21s-12.86-17.88-13.36-18.41c-.53-.59-1.76-.19-3.06.97-1.19,1.08-14.78,20.07-30.21,42.2-37.96,54.45-66.46,94.98-104.87,149.07-17.74,24.99-42.48,59.95-54.98,77.66-12.5,17.73-25.16,35.56-28.17,39.63-5.39,7.32-16.85,23.55-62.69,88.76-13.08,18.6-30.67,43.56-39.13,55.48-8.45,11.91-26.8,38.06-40.81,58.12-36.24,51.9-53.68,76.76-70.81,100.92-38.45,54.21-62.16,87.87-70.79,100.52-3.48,5.11-15.09,21.67-25.78,36.8-51.41,72.73-74,105.35-70.65,102.01,2.31-2.31,125.38-167.35,133.95-179.64,4.58-6.56,74.4-100.44,153.26-206.05,29.29-39.23,69.67-93.49,89.74-120.6,24.27-32.77,48.58-65.52,72.91-98.28,79.79-107.36,115.57-155.74,132.18-178.68,9.57-13.21,17.62-24.02,17.92-24.03s9.09,12.19,19.55,27.12c10.46,14.93,28.25,40.25,39.51,56.26,36.54,51.93,61.72,87.84,76.68,109.43,8.06,11.62,16.88,24.23,19.6,27.99,2.72,3.78,15.78,22.32,29.05,41.21,13.25,18.89,26.5,37.66,29.45,41.73,2.94,4.07,12.03,16.9,20.23,28.54,33.08,46.99,56.52,79.41,59.36,82.08l3,2.83,62.35,1.15c106.58,1.96,180.58,3.12,239.86,3.75,31.38.32,59.56.83,62.61,1.11s5.55.08,5.55-.45c0-1.84-70.65-104.82-134.57-196.11-8.14-11.62-21.76-31.13-30.26-43.32-10.21-14.62-20.43-29.25-30.66-43.86-11.82-16.89-23.62-33.8-35.4-50.73-13-18.69-26-37.34-39.05-56-8.38-11.97-16.76-23.95-25.11-35.93-10.61-15.25-116.96-167.23-142.75-204.03l-4.87-6.95,256.71-348.09c141.2-191.45,256.73-348.45,256.73-348.88s-33.25-.79-73.9-.79h-73.92l-5,7.12-.07-.05Z"/>
  <circle class="cls-1" cx="747.3" cy="1055.9" r="96.3"/>
</svg>