<svg xmlns="http://www.w3.org/2000/svg" version="1.1" xmlns:xlink="http://www.w3.org/1999/xlink" width="2000" height="2000"><svg xmlns="http://www.w3.org/2000/svg" version="1.1" xmlns:xlink="http://www.w3.org/1999/xlink" width="2000" height="2000"><svg xmlns="http://www.w3.org/2000/svg" xmlns:xlink="http://www.w3.org/1999/xlink" width="2000" zoomAndPan="magnify" viewBox="0 0 1500 1499.999933" height="2000" preserveAspectRatio="xMidYMid meet" version="1.0"><defs><clipPath id="4797906fb6"><path d="M 9 13 L 1491 13 L 1491 1498 L 9 1498 Z M 9 13 " clip-rule="nonzero"></path></clipPath><clipPath id="11d23e9b6e"><path d="M 820.367188 25.953125 L 1169.476562 154.710938 C 1214.914062 171.472656 1252.949219 203.777344 1276.839844 245.90625 L 1463.003906 574.21875 C 1486.917969 616.390625 1495.394531 665.574219 1486.972656 713.320312 L 1421.621094 1083.824219 C 1413.199219 1131.570312 1388.421875 1174.894531 1351.539062 1206.363281 L 1067.210938 1448.941406 C 1030.386719 1480.359375 983.5625 1497.617188 935.15625 1497.617188 L 564.84375 1497.617188 C 516.4375 1497.617188 469.613281 1480.359375 432.789062 1448.941406 L 148.460938 1206.363281 C 111.578125 1174.894531 86.800781 1131.570312 78.378906 1083.824219 L 13.027344 713.320312 C 4.605469 665.574219 13.082031 616.390625 36.996094 574.21875 L 223.160156 245.90625 C 247.050781 203.777344 285.085938 171.472656 330.523438 154.710938 L 679.632812 25.953125 C 725.050781 9.203125 774.949219 9.203125 820.367188 25.953125 Z M 820.367188 25.953125 " clip-rule="nonzero"></path></clipPath><clipPath id="e722e6ab5f"><path d="M 0 0 L 1482 0 L 1482 1484.839844 L 0 1484.839844 Z M 0 0 " clip-rule="nonzero"></path></clipPath><clipPath id="a568012108"><path d="M 811.367188 12.953125 L 1160.476562 141.710938 C 1205.914062 158.472656 1243.949219 190.777344 1267.839844 232.90625 L 1454.003906 561.21875 C 1477.917969 603.390625 1486.394531 652.574219 1477.972656 700.320312 L 1412.621094 1070.824219 C 1404.199219 1118.570312 1379.421875 1161.894531 1342.539062 1193.363281 L 1058.210938 1435.941406 C 1021.386719 1467.359375 974.5625 1484.617188 926.15625 1484.617188 L 555.84375 1484.617188 C 507.4375 1484.617188 460.613281 1467.359375 423.789062 1435.941406 L 139.460938 1193.363281 C 102.578125 1161.894531 77.800781 1118.570312 69.378906 1070.824219 L 4.027344 700.320312 C -4.394531 652.574219 4.082031 603.390625 27.996094 561.21875 L 214.160156 232.90625 C 238.050781 190.777344 276.085938 158.472656 321.523438 141.710938 L 670.632812 12.953125 C 716.050781 -3.796875 765.949219 -3.796875 811.367188 12.953125 Z M 811.367188 12.953125 " clip-rule="nonzero"></path></clipPath><clipPath id="44110f496b"><rect x="0" width="1482" y="0" height="1485"></rect></clipPath></defs><g clip-path="url(#4797906fb6)"><g clip-path="url(#11d23e9b6e)"><g transform="matrix(1, 0, 0, 1, 9, 13)"><g clip-path="url(#44110f496b)"><g clip-path="url(#e722e6ab5f)"><g clip-path="url(#a568012108)"><rect x="-339" width="2160" fill="#ffffff" height="2159.999904" y="-342.999985" fill-opacity="1"></rect></g></g></g></g></g></g><path fill="#000000" d="M 1085.453125 162.980469 C 1072.746094 179.855469 1053.59375 205.484375 1047.871094 213.269531 C 1040.601562 223.160156 1019.265625 251.910156 1002.433594 274.503906 C 990.019531 291.171875 977.617188 307.855469 965.234375 324.546875 C 944.972656 351.863281 934.644531 365.773438 922.574219 382.015625 C 915.535156 391.492188 904.316406 406.59375 897.644531 415.578125 C 890.972656 424.5625 876.527344 443.941406 865.546875 458.644531 C 847.515625 482.785156 841.507812 490.890625 821.0625 518.636719 C 817.691406 523.210938 809.066406 534.839844 801.894531 544.476562 C 793.203125 556.152344 784.519531 567.835938 775.84375 579.523438 C 764.085938 595.359375 753.144531 609.742188 751.667969 611.300781 C 751.300781 611.6875 750.601562 611.3125 749.644531 610.207031 C 747.550781 607.792969 722.164062 572.027344 696.238281 534.972656 C 690.640625 526.96875 675.144531 504.914062 661.804688 485.96875 C 648.464844 467.019531 631.355469 442.695312 623.785156 431.914062 C 615.195312 419.6875 606.59375 407.472656 597.972656 395.269531 L 585.929688 378.226562 L 582.875 377.871094 C 581.195312 377.679688 557.5 377.273438 530.21875 376.96875 C 496.210938 376.582031 462.207031 376.160156 428.199219 375.703125 C 399.371094 375.308594 375.636719 375.128906 375.464844 375.304688 C 375.289062 375.480469 378.84375 380.9375 383.363281 387.433594 C 395.710938 405.1875 422.578125 443.6875 438.027344 465.769531 C 445.570312 476.550781 459.898438 497.132812 469.875 511.507812 C 488.050781 537.703125 491.671875 542.890625 516.640625 578.476562 C 525.773438 591.492188 534.894531 604.511719 544.011719 617.539062 C 551.667969 628.480469 563.941406 645.992188 571.285156 656.445312 C 578.628906 666.898438 592.214844 686.277344 601.476562 699.511719 C 610.738281 712.742188 620.171875 726.175781 622.445312 729.367188 C 626.359375 734.867188 626.527344 735.234375 625.679688 736.496094 C 625.1875 737.226562 560.746094 824.695312 482.472656 930.871094 C 404.195312 1037.050781 340.152344 1124.125 340.148438 1124.367188 C 340.144531 1124.613281 358.117188 1124.808594 380.085938 1124.804688 L 420.03125 1124.792969 L 425.949219 1116.636719 C 432.84375 1107.125 446.726562 1087.460938 454.351562 1076.402344 C 459.527344 1068.898438 462.625 1064.515625 485.203125 1032.742188 C 491.121094 1024.414062 503.40625 1007.039062 512.503906 994.132812 C 521.601562 981.230469 534.34375 963.1875 540.820312 954.039062 C 547.300781 944.890625 555.761719 932.863281 559.628906 927.308594 C 563.492188 921.753906 572.835938 908.523438 580.390625 897.90625 C 587.949219 887.289062 597.710938 873.523438 602.082031 867.316406 C 606.457031 861.109375 615.246094 848.679688 621.617188 839.695312 C 627.988281 830.710938 634.976562 820.820312 637.152344 817.714844 C 639.324219 814.613281 650.371094 799.050781 661.699219 783.136719 C 673.03125 767.222656 682.835938 753.289062 683.492188 752.175781 L 684.691406 750.148438 L 675.949219 738.34375 C 665.320312 724.007812 654.683594 709.675781 644.039062 695.351562 C 631.296875 678.199219 616.164062 657.75 610.414062 649.910156 C 582.820312 612.285156 569.4375 594.109375 559.621094 580.933594 C 553.742188 573.039062 544.519531 560.503906 539.128906 553.082031 C 533.738281 545.660156 523.339844 531.53125 516.015625 521.6875 C 508.691406 511.84375 494.550781 492.695312 484.589844 479.136719 C 474.628906 465.578125 460.28125 446.199219 452.707031 436.070312 C 436.457031 414.34375 429.300781 404.542969 428.875 403.4375 C 428.417969 402.25 435.558594 401.988281 486.5625 401.324219 C 511.0625 401.007812 540.734375 400.574219 552.496094 400.363281 L 573.878906 399.984375 L 577.410156 404.957031 C 580.605469 409.464844 599.25 434.605469 633.070312 480.027344 C 685.457031 550.382812 704.703125 576.328125 724.488281 603.28125 C 741.210938 626.0625 750.210938 637.949219 750.890625 638.148438 C 751.21875 638.246094 754.847656 633.578125 758.953125 627.78125 C 768.171875 614.777344 793.953125 578.144531 809.019531 556.652344 C 815.199219 547.832031 824.050781 535.269531 828.683594 528.734375 C 834.488281 520.535156 840.269531 512.320312 846.023438 504.082031 C 850.929688 497.058594 859.601562 484.765625 865.300781 476.761719 C 876.371094 461.210938 879.847656 456.289062 903.253906 423.003906 C 911.527344 411.242188 924.085938 393.464844 931.160156 383.5 C 938.234375 373.539062 945.191406 363.648438 946.617188 361.523438 C 948.039062 359.402344 952.714844 352.71875 957 346.675781 C 973.433594 323.5 989.84375 300.230469 1008.316406 273.910156 C 1018.859375 258.878906 1033.65625 237.898438 1041.195312 227.28125 C 1054.816406 208.097656 1089.101562 159.351562 1089.976562 157.929688 C 1090.226562 157.523438 1090.292969 157.1875 1090.121094 157.1875 C 1089.953125 157.1875 1087.851562 159.792969 1085.453125 162.980469 M 1095.332031 379.195312 C 1092.992188 382.519531 1090.640625 385.835938 1088.277344 389.144531 C 1074.183594 408.851562 1051.730469 440.664062 1045.351562 449.960938 C 1043.195312 453.101562 1032.707031 467.96875 1022.046875 482.996094 C 1011.386719 498.023438 997.890625 517.136719 992.050781 525.46875 C 986.214844 533.796875 979.800781 542.886719 977.800781 545.664062 C 973.140625 552.125 961.535156 568.613281 946.027344 590.808594 C 934.9375 606.675781 901.792969 653.632812 883.875 678.855469 C 879.996094 684.320312 870.003906 698.457031 861.671875 710.273438 C 853.339844 722.085938 843.523438 735.90625 839.855469 740.980469 C 835.792969 746.605469 833.378906 750.457031 833.679688 750.847656 C 834.207031 751.535156 866.027344 794.738281 891.457031 829.300781 C 914.234375 860.25 975.671875 943.652344 1014.417969 996.210938 C 1029.96875 1017.308594 1061.742188 1060.5 1072.25 1074.824219 C 1087.660156 1095.828125 1088.566406 1097.152344 1087.820312 1097.566406 C 1087.421875 1097.789062 1071.324219 1098.269531 1052.050781 1098.640625 C 1032.773438 1099.007812 1003.90625 1099.566406 987.898438 1099.882812 C 971.890625 1100.199219 955.53125 1100.457031 951.542969 1100.457031 L 944.292969 1100.460938 L 928.078125 1078.71875 C 897.367188 1037.535156 883.808594 1019.332031 871.488281 1002.746094 C 864.695312 993.597656 854.761719 980.234375 849.414062 973.046875 C 844.066406 965.859375 831.246094 948.617188 820.921875 934.734375 C 811.347656 921.863281 801.773438 908.992188 792.203125 896.125 C 786.734375 888.773438 779.109375 878.347656 775.257812 872.957031 C 771.40625 867.566406 768.027344 862.910156 767.753906 862.605469 C 767.457031 862.277344 766.765625 862.5 766.039062 863.15625 C 765.371094 863.761719 757.730469 874.433594 749.058594 886.875 C 727.722656 917.484375 711.699219 940.265625 690.109375 970.671875 C 680.132812 984.71875 666.226562 1004.367188 659.203125 1014.328125 C 652.175781 1024.292969 645.054688 1034.316406 643.371094 1036.605469 C 640.339844 1040.726562 633.898438 1049.84375 608.128906 1086.5 C 600.78125 1096.957031 590.882812 1110.988281 586.132812 1117.6875 C 581.386719 1124.382812 571.0625 1139.085938 563.191406 1150.355469 C 542.820312 1179.53125 533.015625 1193.503906 523.386719 1207.082031 C 501.773438 1237.554688 488.445312 1256.480469 483.589844 1263.589844 C 481.632812 1266.460938 475.109375 1275.773438 469.097656 1284.277344 C 440.203125 1325.160156 427.503906 1343.5 429.382812 1341.625 C 430.683594 1340.328125 499.863281 1247.550781 504.679688 1240.644531 C 507.253906 1236.953125 546.5 1184.1875 590.832031 1124.8125 C 607.296875 1102.761719 629.996094 1072.257812 641.277344 1057.023438 C 654.921875 1038.605469 668.582031 1020.191406 682.261719 1001.78125 C 727.109375 941.425781 747.226562 914.230469 756.5625 901.339844 C 761.9375 893.917969 766.46875 887.839844 766.632812 887.832031 C 766.796875 887.824219 771.742188 894.6875 777.621094 903.078125 C 783.5 911.472656 793.496094 925.703125 799.832031 934.703125 C 820.371094 963.890625 834.523438 984.085938 842.9375 996.214844 C 847.46875 1002.746094 852.425781 1009.832031 853.953125 1011.953125 C 855.480469 1014.078125 862.824219 1024.503906 870.277344 1035.121094 C 877.726562 1045.738281 885.175781 1056.296875 886.828125 1058.582031 C 888.480469 1060.871094 893.59375 1068.085938 898.195312 1074.621094 C 916.789062 1101.035156 929.96875 1119.257812 931.5625 1120.761719 L 933.25 1122.351562 L 968.296875 1123 C 1028.207031 1124.105469 1069.808594 1124.753906 1103.132812 1125.105469 C 1120.773438 1125.289062 1136.613281 1125.570312 1138.328125 1125.726562 C 1140.042969 1125.882812 1141.445312 1125.769531 1141.445312 1125.46875 C 1141.445312 1124.433594 1101.730469 1066.550781 1065.800781 1015.222656 C 1061.226562 1008.6875 1053.570312 997.726562 1048.789062 990.867188 C 1043.054688 982.644531 1037.308594 974.425781 1031.554688 966.214844 C 1024.90625 956.722656 1018.277344 947.21875 1011.660156 937.703125 C 1004.355469 927.199219 997.039062 916.707031 989.707031 906.222656 C 984.996094 899.492188 980.289062 892.761719 975.589844 886.027344 C 969.625 877.457031 909.847656 792.019531 895.347656 771.335938 L 892.609375 767.425781 L 1036.917969 571.75 C 1116.289062 464.128906 1181.230469 375.875 1181.234375 375.632812 C 1181.238281 375.386719 1162.546875 375.1875 1139.695312 375.1875 L 1098.144531 375.1875 Z M 1095.332031 379.195312 " fill-opacity="1" fill-rule="evenodd"></path></svg></svg><style>@media (prefers-color-scheme: light) { :root { filter: none; } }
@media (prefers-color-scheme: dark) { :root { filter: none; } }
</style></svg>